<svg xmlns="http://www.w3.org/2000/svg" xmlns:xlink="http://www.w3.org/1999/xlink" width="37" zoomAndPan="magnify" viewBox="0 0 27.75 30.75" height="41" preserveAspectRatio="xMidYMid meet" version="1.0"><defs><g/><clipPath id="a39b9afbb9"><path d="M 0 4.070312 L 27.503906 4.070312 L 27.503906 26 L 0 26 Z M 0 4.070312 " clip-rule="nonzero"/></clipPath><clipPath id="3e097edef1"><path d="M 6 25 L 12 25 L 12 30.488281 L 6 30.488281 Z M 6 25 " clip-rule="nonzero"/></clipPath><clipPath id="6216ca12be"><path d="M 19 25 L 25 25 L 25 30.488281 L 19 30.488281 Z M 19 25 " clip-rule="nonzero"/></clipPath></defs><g clip-path="url(#a39b9afbb9)"><path fill="#ffffff" d="M 26.957031 8.4375 C 26.742188 8.175781 26.417969 8.023438 26.078125 8.023438 L 6.65625 8.023438 L 5.71875 4.882812 C 5.574219 4.402344 5.132812 4.070312 4.628906 4.070312 L 1.152344 4.070312 C 0.523438 4.070312 0.015625 4.582031 0.015625 5.210938 C 0.015625 5.839844 0.523438 6.347656 1.152344 6.347656 L 3.777344 6.347656 L 8.035156 20.640625 C 7.574219 21.484375 7.136719 22.695312 7.632812 23.710938 C 8.070312 24.605469 9.0625 25.0625 10.582031 25.0625 C 10.609375 25.0625 10.636719 25.0625 10.664062 25.058594 C 10.761719 25.050781 20.570312 24.152344 23.953125 24.34375 C 24.445312 24.367188 24.871094 23.992188 24.898438 23.496094 C 24.925781 23 24.546875 22.574219 24.050781 22.546875 C 20.617188 22.355469 11.347656 23.191406 10.539062 23.265625 C 9.707031 23.257812 9.324219 23.078125 9.246094 22.917969 C 9.160156 22.746094 9.222656 22.414062 9.367188 22.042969 C 9.390625 22.039062 9.414062 22.039062 9.4375 22.039062 L 24.296875 20.242188 C 24.789062 20.179688 25.183594 19.8125 25.277344 19.324219 L 27.195312 9.378906 C 27.261719 9.046875 27.171875 8.699219 26.957031 8.4375 Z M 18.707031 13.960938 L 14.035156 13.960938 L 14.035156 10.300781 L 18.707031 10.300781 Z M 8.742188 15.039062 L 12.957031 15.039062 L 12.957031 19.320312 L 10.117188 19.660156 Z M 14.035156 15.039062 L 18.707031 15.039062 L 18.707031 18.621094 L 14.035156 19.1875 Z M 23.996094 13.960938 L 19.789062 13.960938 L 19.789062 10.300781 L 24.699219 10.300781 Z M 12.957031 10.300781 L 12.957031 13.960938 L 8.421875 13.960938 L 7.332031 10.300781 Z M 19.789062 18.492188 L 19.789062 15.039062 L 23.785156 15.039062 L 23.199219 18.078125 Z M 19.789062 18.492188 " fill-opacity="1" fill-rule="nonzero"/></g><g clip-path="url(#3e097edef1)"><path fill="#ffffff" d="M 11.457031 28.214844 C 11.457031 28.515625 11.402344 28.808594 11.285156 29.085938 C 11.171875 29.363281 11.007812 29.609375 10.792969 29.824219 C 10.578125 30.035156 10.332031 30.199219 10.054688 30.316406 C 9.777344 30.433594 9.484375 30.488281 9.183594 30.488281 C 8.882812 30.488281 8.59375 30.433594 8.3125 30.316406 C 8.035156 30.199219 7.789062 30.035156 7.574219 29.824219 C 7.363281 29.609375 7.199219 29.363281 7.082031 29.085938 C 6.96875 28.808594 6.910156 28.515625 6.910156 28.214844 C 6.910156 27.914062 6.96875 27.625 7.082031 27.34375 C 7.199219 27.066406 7.363281 26.820312 7.574219 26.605469 C 7.789062 26.394531 8.035156 26.230469 8.3125 26.113281 C 8.59375 25.996094 8.882812 25.941406 9.183594 25.941406 C 9.484375 25.941406 9.777344 25.996094 10.054688 26.113281 C 10.332031 26.230469 10.578125 26.394531 10.792969 26.605469 C 11.007812 26.820312 11.171875 27.066406 11.285156 27.34375 C 11.402344 27.625 11.457031 27.914062 11.457031 28.214844 Z M 11.457031 28.214844 " fill-opacity="1" fill-rule="nonzero"/></g><g clip-path="url(#6216ca12be)"><path fill="#ffffff" d="M 24.402344 28.214844 C 24.402344 28.515625 24.34375 28.808594 24.226562 29.085938 C 24.113281 29.363281 23.949219 29.609375 23.734375 29.824219 C 23.519531 30.035156 23.273438 30.199219 22.996094 30.316406 C 22.71875 30.433594 22.429688 30.488281 22.125 30.488281 C 21.824219 30.488281 21.535156 30.433594 21.253906 30.316406 C 20.976562 30.199219 20.730469 30.035156 20.519531 29.824219 C 20.304688 29.609375 20.140625 29.363281 20.023438 29.085938 C 19.910156 28.808594 19.851562 28.515625 19.851562 28.214844 C 19.851562 27.914062 19.910156 27.625 20.023438 27.34375 C 20.140625 27.066406 20.304688 26.820312 20.519531 26.605469 C 20.730469 26.394531 20.976562 26.230469 21.253906 26.113281 C 21.535156 25.996094 21.824219 25.941406 22.125 25.941406 C 22.429688 25.941406 22.71875 25.996094 22.996094 26.113281 C 23.273438 26.230469 23.519531 26.394531 23.734375 26.605469 C 23.949219 26.820312 24.113281 27.066406 24.226562 27.34375 C 24.34375 27.625 24.402344 27.914062 24.402344 28.214844 Z M 24.402344 28.214844 " fill-opacity="1" fill-rule="nonzero"/></g><g fill="#ffffff" fill-opacity="1"><g transform="translate(7.459483, 21.39972)"><g><path d="M 2.328125 0.09375 C 1.992188 0.09375 1.734375 0 1.546875 -0.1875 C 1.359375 -0.375 1.265625 -0.617188 1.265625 -0.921875 C 1.265625 -1.222656 1.359375 -1.46875 1.546875 -1.65625 C 1.734375 -1.851562 1.992188 -1.953125 2.328125 -1.953125 C 2.660156 -1.953125 2.921875 -1.859375 3.109375 -1.671875 C 3.296875 -1.492188 3.390625 -1.25 3.390625 -0.9375 C 3.390625 -0.632812 3.289062 -0.382812 3.09375 -0.1875 C 2.90625 0 2.648438 0.09375 2.328125 0.09375 Z M 2.328125 0.09375 "/></g></g></g></svg>